<svg width="14" height="16" viewBox="0 0 14 16" fill="none" xmlns="http://www.w3.org/2000/svg">
<path d="M5.875 1.03125C6.28125 1.125 6.5625 1.5 6.46875 1.90625L6 4.25H9.46875L10 1.625C10.0938 1.21875 10.4688 0.9375 10.875 1.03125C11.2812 1.125 11.5625 1.5 11.4688 1.90625L11 4.25H13.25C13.6562 4.25 14 4.59375 14 5C14 5.4375 13.6562 5.75 13.25 5.75H10.6875L9.8125 10.25H12.25C12.6562 10.25 13 10.5938 13 11C13 11.4375 12.6562 11.75 12.25 11.75H9.5L8.96875 14.4062C8.90625 14.8125 8.5 15.0938 8.09375 15C7.6875 14.9062 7.4375 14.5312 7.5 14.125L7.96875 11.75H4.5L3.96875 14.4062C3.90625 14.8125 3.5 15.0938 3.09375 15C2.6875 14.9062 2.4375 14.5312 2.5 14.125L2.96875 11.75H0.75C0.3125 11.75 0 11.4375 0 11C0 10.5938 0.3125 10.25 0.75 10.25H3.28125L4.15625 5.75H1.75C1.3125 5.75 1 5.4375 1 5C1 4.59375 1.3125 4.25 1.75 4.25H4.46875L5 1.625C5.09375 1.21875 5.46875 0.9375 5.875 1.03125ZM5.6875 5.75L4.8125 10.25H8.28125L9.15625 5.75H5.6875Z" fill="#8E8E93"/>
</svg>
