<svg width="14" height="12" viewBox="0 0 14 12" fill="none" xmlns="http://www.w3.org/2000/svg">
<path d="M14 1V11C14 11.5625 13.5312 12 13 12C12.4375 12 12 11.5625 12 11V1C12 0.46875 12.4375 0 13 0C13.5312 0 14 0.46875 14 1ZM9.6875 6.71875L5.6875 10.7188C5.3125 11.125 4.65625 11.125 4.28125 10.7188C3.875 10.3438 3.875 9.6875 4.28125 9.3125L6.5625 7H1C0.4375 7 0 6.5625 0 6C0 5.46875 0.4375 5 1 5H6.5625L4.28125 2.71875C3.875 2.34375 3.875 1.6875 4.28125 1.3125C4.65625 0.90625 5.3125 0.90625 5.6875 1.3125L9.6875 5.3125C10.0938 5.6875 10.0938 6.34375 9.6875 6.71875Z" fill="#8E8E93"/>
</svg>
