<svg width="16" height="16" viewBox="0 0 16 16" fill="none" xmlns="http://www.w3.org/2000/svg">
<path d="M8.63997 7.11608L13.64 3.11608C14.0462 2.74108 14.14 2.11608 13.7962 1.70983C13.4212 1.27233 12.7962 1.20983 12.39 1.55358L8.01497 5.05358L3.63997 1.55358C3.20247 1.20983 2.57747 1.27233 2.23372 1.70983C1.88997 2.11608 1.95247 2.77233 2.38997 3.11608L7.38997 7.11608C7.73372 7.39733 8.26497 7.39733 8.63997 7.11608ZM13.64 12.9008L8.63997 8.90079C8.26497 8.58829 7.73372 8.58829 7.38997 8.90079L2.38997 12.9008C1.95247 13.2445 1.85872 13.8695 2.23372 14.307C2.57747 14.7133 3.20247 14.807 3.63997 14.4633L8.01497 10.9633L12.39 14.4633C12.7962 14.807 13.4525 14.7133 13.7962 14.307C14.14 13.8695 14.0462 13.2445 13.64 12.9008Z" fill="#8E8E93"/>
</svg>