<svg width="16" height="16" viewBox="0 0 16 16" fill="none" xmlns="http://www.w3.org/2000/svg">
<path d="M9 7.5H9.75C10.1562 7.5 10.5 7.84375 10.5 8.25V9V9.90625L14.25 6.5L10.5 3.125V4V4.75C10.5 5.1875 10.1562 5.5 9.75 5.5H9H5.5C3.28125 5.5 1.5 7.3125 1.5 9.5C1.5 10 1.53125 10.4375 1.65625 10.8125C2.1875 8.90625 3.90625 7.5 6 7.5H9ZM9 9V9.03125H7.5H6C4.34375 9.03125 3 10.375 3 12.0312C3 12.5625 3.125 12.9688 3.28125 13.2812C3.34375 13.375 3.375 13.4375 3.4375 13.5312C3.53125 13.625 3.59375 13.7188 3.6875 13.7812C3.6875 13.8125 3.71875 13.8125 3.71875 13.8438C3.875 14 3.96875 14.1875 3.96875 14.4062C3.96875 14.75 3.71875 15 3.375 15C3.28125 15 3.1875 15 3.125 14.9688C3.03125 14.9062 2.90625 14.8438 2.78125 14.75C2.6875 14.6875 2.59375 14.625 2.5 14.5625C2.375 14.4688 2.25 14.375 2.125 14.2812C1.1875 13.4688 0 11.9375 0 9.5C0 6.46875 2.4375 4 5.5 4H7.5H9V2.5V2C9 1.625 9.21875 1.25 9.59375 1.09375C9.9375 0.9375 10.375 1 10.6562 1.28125L15.6562 5.78125C15.875 5.96875 16 6.21875 16 6.5C16 6.8125 15.875 7.0625 15.6562 7.25L10.6562 11.75C10.375 12.0312 9.9375 12.0938 9.59375 11.9375C9.21875 11.7812 9 11.4062 9 11V10.5V9Z" fill="#232F3E"/>
</svg>
