<svg width="20" height="21" viewBox="0 0 20 21" fill="none" xmlns="http://www.w3.org/2000/svg">
<path d="M6.75 6.125C6.75 7.49219 7.45312 8.70312 8.625 9.40625C9.75781 10.0703 11.2031 10.0703 12.375 9.40625C13.5078 8.70312 14.25 7.49219 14.25 6.125C14.25 4.79688 13.5078 3.58594 12.375 2.88281C11.2031 2.21875 9.75781 2.21875 8.625 2.88281C7.45312 3.58594 6.75 4.79688 6.75 6.125ZM11.4375 11.6719V19.5625C11.4375 20.1094 11.0078 20.5 10.5 20.5C9.95312 20.5 9.5625 20.1094 9.5625 19.5625V11.6719C6.86719 11.2422 4.875 8.9375 4.875 6.125C4.875 3.03906 7.375 0.5 10.5 0.5C13.5859 0.5 16.125 3.03906 16.125 6.125C16.125 8.9375 14.0938 11.2422 11.4375 11.6719Z" fill="#8E8E93"/>
</svg>
