<?xml version="1.0" encoding="UTF-8"?>
<svg width="40px" height="40px" viewBox="0 0 40 40" version="1.1" xmlns="http://www.w3.org/2000/svg" xmlns:xlink="http://www.w3.org/1999/xlink">
    <title>Icon/API</title>
    <defs>
        <linearGradient x1="41.6596653%" y1="100%" x2="58.3403347%" y2="7.2858386e-15%" id="linearGradient-1">
            <stop stop-color="#005276" offset="0%"></stop>
            <stop stop-color="#007FAA" offset="49.6546329%"></stop>
            <stop stop-color="#007FAA" offset="100%"></stop>
        </linearGradient>
        <linearGradient x1="58.3403347%" y1="7.2858386e-15%" x2="41.6596653%" y2="100%" id="linearGradient-2">
            <stop stop-color="#7CE8F4" stop-opacity="0.367105551" offset="0%"></stop>
            <stop stop-color="#7CE8F4" stop-opacity="0" offset="100%"></stop>
        </linearGradient>
        <linearGradient x1="58.3403347%" y1="7.2858386e-15%" x2="41.6596653%" y2="100%" id="linearGradient-3">
            <stop stop-color="#38EF7D" stop-opacity="0.549524694" offset="0%"></stop>
            <stop stop-color="#38EF7D" stop-opacity="0" offset="100%"></stop>
        </linearGradient>
        <path d="M22.7352479,14.4981295 C22.874465,14.1080123 23.3035753,13.9046175 23.6936925,14.0438346 C24.0838098,14.1830517 24.2872046,14.6121619 24.1479875,15.0022792 L18.0046202,32.2173611 C17.8654031,32.6074783 17.4362928,32.8108731 17.0461755,32.671656 C16.6560583,32.5324389 16.4526635,32.1033286 16.5918806,31.7132114 L22.7352479,14.4981295 Z" id="path-4"></path>
    </defs>
    <g id="Icon/API" stroke="none" stroke-width="1" fill="none" fill-rule="evenodd">
        <path d="M35.6097561,4 C38.0344209,4 40,5.95366655 40,8.36363636 L40,31.6363636 C40,34.0463335 38.0344209,36 35.6097561,36 L4.3902439,36 C1.96557915,36 0,34.0463335 0,31.6363636 L0,8.36363636 C0,5.95366655 1.96557915,4 4.3902439,4 L35.6097561,4 Z M35.6097561,4.96969697 L4.3902439,4.96969697 C2.50439354,4.96969697 0.975609756,6.48921539 0.975609756,8.36363636 L0.975609756,31.6363636 C0.975609756,33.5107846 2.50439354,35.030303 4.3902439,35.030303 L35.6097561,35.030303 C37.4956065,35.030303 39.0243902,33.5107846 39.0243902,31.6363636 L39.0243902,8.36363636 C39.0243902,6.48921539 37.4956065,4.96969697 35.6097561,4.96969697 Z" id="Rectangle" fill="#232F3E" fill-rule="nonzero"></path>
        <polygon id="Path-2" fill="#232F3E" fill-rule="nonzero" points="0 12.000327 40 12.000327 40 11.000327 0 11.000327"></polygon>
        <circle id="Oval" fill="#232F3E" cx="4" cy="8" r="1"></circle>
        <circle id="Oval-Copy" fill="#232F3E" cx="7" cy="8" r="1"></circle>
        <circle id="Oval-Copy-2" fill="#232F3E" cx="10" cy="8" r="1"></circle>
        <path d="M13.9996085,18.2196699 C14.2925017,17.9267767 14.7673754,17.9267767 15.0602687,18.2196699 C15.3531619,18.5125631 15.3531619,18.9874369 15.0602687,19.2803301 L10.901734,23.438 L15.0602687,27.596079 C15.3265352,27.8623456 15.3507413,28.2790093 15.1328868,28.5726208 L15.0602687,28.6567392 C14.7673754,28.9496324 14.2925017,28.9496324 13.9996085,28.6567392 L9.31140394,23.9685346 L8.78107386,23.4382046 L9.31140394,22.9078745 L13.9996085,18.2196699 Z" id="Path-4" fill="#232F3E" fill-rule="nonzero"></path>
        <path d="M30.3102687,18.2196699 C30.6031619,17.9267767 31.0780356,17.9267767 31.3709288,18.2196699 C31.6638221,18.5125631 31.6638221,18.9874369 31.3709288,19.2803301 L27.2123942,23.438 L31.3709288,27.596079 C31.6371954,27.8623456 31.6614014,28.2790093 31.443547,28.5726208 L31.3709288,28.6567392 C31.0780356,28.9496324 30.6031619,28.9496324 30.3102687,28.6567392 L25.6220641,23.9685346 L25.091734,23.4382046 L25.6220641,22.9078745 L30.3102687,18.2196699 Z" id="Path-4-Copy" fill="#232F3E" fill-rule="nonzero" transform="translate(28.3412, 23.4382) scale(-1, 1) translate(-28.3412, -23.4382)"></path>
        <g id="Path-5">
            <use fill="url(#linearGradient-1)" xlink:href="#path-4"></use>
            <use fill="url(#linearGradient-2)" xlink:href="#path-4"></use>
            <use fill="url(#linearGradient-3)" xlink:href="#path-4"></use>
        </g>
    </g>
</svg>