<svg width="14" height="12" viewBox="0 0 14 12" fill="none" xmlns="http://www.w3.org/2000/svg">
<path d="M0 1C0 0.46875 0.4375 0 1 0C1.53125 0 2 0.46875 2 1V11C2 11.5625 1.53125 12 1 12C0.4375 12 0 11.5625 0 11V1ZM4.28125 6.71875C3.875 6.34375 3.875 5.6875 4.28125 5.3125L8.28125 1.3125C8.65625 0.90625 9.3125 0.90625 9.6875 1.3125C10.0938 1.6875 10.0938 2.34375 9.6875 2.71875L7.40625 5H13C13.5312 5 14 5.46875 14 6C14 6.5625 13.5312 7 13 7H7.40625L9.6875 9.3125C10.0938 9.6875 10.0938 10.3438 9.6875 10.7188C9.3125 11.125 8.65625 11.125 8.28125 10.7188L4.28125 6.71875Z" fill="#8E8E93"/>
</svg>
