<svg width="16" height="16" viewBox="0 0 16 16" fill="none" xmlns="http://www.w3.org/2000/svg">
<path d="M8.64668 1.21094L13.6467 5.21094C14.0529 5.58594 14.1467 6.21094 13.8029 6.61719C13.4279 7.05469 12.8029 7.11719 12.3967 6.77344L8.02168 3.27344L3.64668 6.77344C3.20918 7.11719 2.58418 7.05469 2.24043 6.61719C1.89668 6.21094 1.95918 5.55469 2.39668 5.21094L7.39668 1.21094C7.74043 0.929688 8.27168 0.929688 8.64668 1.21094ZM13.6467 10.7734L8.64668 14.7734C8.27168 15.0859 7.74043 15.0859 7.39668 14.7734L2.39668 10.7734C1.95918 10.4297 1.86543 9.80469 2.24043 9.36719C2.58418 8.96094 3.20918 8.86719 3.64668 9.21094L8.02168 12.7109L12.3967 9.21094C12.8029 8.86719 13.4592 8.96094 13.8029 9.36719C14.1467 9.80469 14.0529 10.4297 13.6467 10.7734Z" fill="#8E8E93"/>
</svg>